# xmcd
#
# Track frame offsets: 
#        150
#        32910
#        57855
#        80700
#        99020
#        119415
#        144405
#        165265
#
# Disc length: 2564 seconds
#
# Revision: 1
# Processed by: cddbd v1.5.2PL0 Copyright (c) Steve Scherf et al.
# Submitted via: ExactAudioCopy v1.0b3
#
DISCID=5d0a0208
DTITLE=Various Artist - The Best Of 12 Gold - Vol. 06
DYEAR=1989
DGENRE=R&B
TTITLE0=Gwen Guthrie - (They Long to Be) Close to You
TTITLE1=Terri Wells - You Make It Heaven
TTITLE2=Billy Griffin - Serious
TTITLE3=Jeffrey Osborne - On the Wings of Love
TTITLE4=Earth Wind and Fire - After the Love Has Gone
TTITLE5=Atlantic Starr - Secret Lovers
TTITLE6=Champaign - How 'Bout Us
TTITLE7=S. O. S. Band - Weekend Girl
EXTD=
EXTT0=
EXTT1=
EXTT2=
EXTT3=
EXTT4=
EXTT5=
EXTT6=
EXTT7=
PLAYORDER=
